<?xml version="1.0" standalone="no"?>
<!DOCTYPE svg PUBLIC "-//W3C//DTD SVG 20010904//EN"
 "http://www.w3.org/TR/2001/REC-SVG-20010904/DTD/svg10.dtd">
<svg version="1.0" xmlns="http://www.w3.org/2000/svg"
 width="700.000000pt" height="700.000000pt" viewBox="0 0 700.000000 700.000000"
 preserveAspectRatio="xMidYMid meet">
<metadata>
Created by potrace 1.11, written by Peter Selinger 2001-2013
</metadata>
<g transform="translate(0.000000,700.000000) scale(0.100000,-0.100000)"
fill="#000000" stroke="none">
<path d="M1953 6186 c-312 -319 -658 -672 -767 -783 -110 -112 -197 -206 -194
-209 9 -9 2065 -354 2110 -354 17 0 1533 1529 1524 1537 -7 7 -28 11 -1221
228 -467 86 -857 157 -867 159 -11 2 -199 -183 -585 -578z"/>
<path d="M4444 6017 c-183 -188 -330 -344 -328 -346 2 -2 249 -56 549 -121
299 -64 548 -119 551 -123 4 -3 82 -248 174 -542 93 -295 170 -539 173 -541 3
-3 158 147 345 333 l340 338 -176 565 c-97 311 -176 566 -177 567 0 1 -245 47
-545 103 -300 56 -552 103 -560 105 -9 3 -139 -124 -346 -338z"/>
<path d="M3612 5170 c-210 -213 -348 -362 -340 -364 7 -3 263 -46 568 -97
l555 -91 170 -560 c94 -308 173 -564 176 -570 4 -5 100 86 215 203 115 118
276 282 358 366 l149 152 -172 552 c-94 304 -173 554 -174 555 -1 1 -254 47
-562 103 -308 56 -567 104 -575 106 -10 3 -142 -125 -368 -355z"/>
<path d="M530 4704 c-223 -217 -407 -399 -408 -404 -2 -6 76 -266 174 -578
l177 -569 459 -77 c253 -43 460 -77 462 -75 1 2 -79 256 -179 564 l-182 560
405 407 c269 269 401 409 392 412 -21 7 -864 156 -881 156 -8 -1 -196 -178
-419 -396z"/>
<path d="M1597 4512 c-216 -222 -393 -410 -395 -417 -2 -10 334 -1110 343
-1122 4 -6 999 -173 1003 -168 3 3 -74 251 -172 552 l-177 546 113 116 c62 64
245 250 407 413 195 196 290 299 280 302 -7 3 -238 45 -512 94 l-499 88 -391
-404z"/>
<path d="M5946 4521 l-338 -338 147 -479 c81 -264 151 -483 155 -487 6 -6 609
612 659 676 12 15 -4 76 -130 492 -79 261 -146 475 -149 475 -3 0 -157 -152
-344 -339z"/>
<path d="M2930 3504 c-184 -460 -337 -837 -340 -838 -3 -2 -227 35 -498 82
-271 46 -495 82 -498 79 -3 -3 61 -218 142 -479 l147 -474 510 -87 c281 -48
511 -85 512 -84 1 1 147 175 325 387 275 328 376 440 688 758 200 205 368 371
372 370 4 -2 185 -193 401 -426 l393 -423 363 363 363 363 -150 480 c-83 264
-153 487 -156 494 -3 10 -122 -102 -362 -342 l-357 -356 -758 484 c-416 267
-759 485 -760 485 -2 0 -154 -376 -337 -836z m874 241 c256 -275 461 -504 457
-508 -16 -16 -1214 -638 -1219 -633 -3 3 48 385 112 848 64 464 116 847 116
853 0 14 19 -6 534 -560z"/>
<path d="M6274 3455 c-181 -190 -330 -350 -332 -355 -5 -13 280 -911 288 -908
5 3 583 618 643 685 19 21 19 23 -113 455 -73 238 -135 441 -137 451 -3 9 -8
17 -12 17 -4 0 -155 -155 -337 -345z"/>
<path d="M520 3014 c0 -14 292 -948 299 -956 8 -9 921 -162 927 -155 8 7 -295
940 -309 953 -7 6 -205 43 -442 83 -236 40 -440 75 -452 78 -13 3 -23 1 -23
-3z"/>
<path d="M5478 2635 c-197 -200 -358 -369 -358 -376 0 -26 284 -949 291 -947
17 6 709 761 709 773 0 15 -268 883 -278 902 -4 7 -149 -133 -364 -352z"/>
<path d="M4595 1720 c-307 -324 -394 -410 -410 -406 -96 22 -1067 198 -1070
194 -5 -4 260 -908 267 -913 8 -5 1115 -235 1128 -234 16 1 773 803 778 825 2
7 -47 174 -108 371 -157 502 -180 573 -188 573 -4 0 -182 -185 -397 -410z"/>
<path d="M860 1924 c0 -13 262 -840 269 -846 6 -7 953 -210 957 -205 3 3 -283
877 -289 883 -5 6 -900 174 -924 174 -7 0 -13 -3 -13 -6z"/>
<path d="M1930 1729 c0 -10 268 -881 272 -884 12 -8 1044 -220 1046 -215 4 10
-284 900 -294 910 -5 4 -207 45 -449 90 -242 45 -470 88 -507 95 -38 7 -68 9
-68 4z"/>
</g>
</svg>
